<svg width="84" height="45" viewBox="0 0 84 45" fill="none" xmlns="http://www.w3.org/2000/svg">
<path fill-rule="evenodd" clip-rule="evenodd" d="M6.5469 13.1484V2.9599H10.1301V0.649902H0.521423V2.9599H4.10461V13.1484H6.5469ZM64.4015 17.3659C64.4015 18.1429 63.77 18.7939 62.9605 18.7939C62.1685 18.7939 61.5196 18.1779 61.5196 17.3659C61.5196 16.5539 62.1511 15.9029 62.9605 15.9029C63.77 15.9029 64.4015 16.5889 64.4015 17.3659ZM4.10479 31.8174H8.76259C11.2258 31.8174 12.8587 33.4379 12.8587 35.7129C12.8587 37.9879 11.2223 39.6084 8.76259 39.6084H6.52964V44.3159H4.10479V31.8174ZM6.54708 37.5119H8.46254C9.67321 37.5119 10.4129 36.8434 10.4129 35.7304C10.4129 34.6174 9.6767 33.9314 8.46254 33.9314H6.54708V37.5119ZM16.3755 35.6394V36.9274C16.9024 35.7794 18.0956 35.5694 18.8353 35.5694C19.0272 35.5694 19.2051 35.5869 19.3795 35.6044V37.9669C19.1179 37.9144 18.8876 37.8969 18.6783 37.8969C17.4815 37.8969 16.4453 38.4779 16.4453 40.3469V44.3124H14.1077V35.6394H16.3755ZM25.3562 13.4144C27.4809 13.4144 28.8521 12.1614 29.2917 10.6634L27.3414 10.0824C27.0588 10.8594 26.4622 11.4054 25.3736 11.4054C24.2153 11.4054 23.2488 10.5759 23.193 9.43139H29.379C29.379 9.42285 29.381 9.39535 29.3842 9.35377V9.35373C29.3939 9.22488 29.4138 8.96089 29.4138 8.70689C29.4138 5.9209 27.8159 4.2129 25.1433 4.2129C22.9278 4.2129 20.8902 6.0119 20.8902 8.78039C20.8902 11.7064 22.9802 13.4179 25.3527 13.4179L25.3562 13.4144ZM25.1817 6.1169C26.518 6.1169 27.0797 6.9639 27.1146 7.8284H23.2488C23.3011 7.0339 23.971 6.1169 25.1817 6.1169ZM40.3832 25.4194L39.4167 26.4449V28.7339H37.0791V16.2004H39.4167V23.2879L42.4033 20.0609H45.4596L41.9986 23.7114L45.5294 28.7339H42.665L40.3832 25.4194ZM64.1398 20.0609H61.8022V28.7339H64.1398V20.0609ZM15.5486 6.36193C14.5648 6.36193 13.9856 7.10393 13.9332 8.05593L13.9298 8.05243V13.1484H11.5921V0.747934H13.9298V5.20343C14.4915 4.53493 15.4405 4.25143 16.2674 4.25143C18.4654 4.25143 19.4842 5.78443 19.4842 7.68843V13.1519H17.1466V8.09093C17.1466 7.12143 16.6721 6.36193 15.5486 6.36193ZM4.1082 16.2354V28.7339H6.42488V20.0434L10.0116 28.7339H12.0317L15.6184 19.9734V28.7339H18.0083V16.2354H14.7042L11.0478 25.2619L7.30411 16.2354H4.1082ZM47.1484 32.9479C47.1484 32.1359 47.7974 31.4849 48.5894 31.4849C49.3988 31.4849 50.0303 32.1709 50.0303 32.9479C50.0303 33.7249 49.3814 34.3759 48.5894 34.3759C47.7974 34.3759 47.1484 33.7599 47.1484 32.9479ZM58.4875 17.4709H56.1673V20.0609H54.6043V22.1399H56.1673V26.1754C56.1673 27.8519 57.221 28.8564 58.9097 28.8564C59.5935 28.8564 60.1239 28.7339 60.3367 28.6464V26.7074C60.2146 26.7424 59.7889 26.7774 59.5098 26.7774C58.8434 26.7774 58.491 26.5324 58.491 25.7729V22.1399H60.3367V20.0609H58.491V17.4709H58.4875ZM60.616 39.9444C60.616 37.1759 62.6535 35.3769 64.869 35.3769V35.3804C67.5416 35.3804 69.1395 37.0884 69.1395 39.8744C69.1395 40.1284 69.1196 40.3924 69.1099 40.5213L69.1099 40.5216L69.1072 40.5574C69.1056 40.5788 69.1047 40.5931 69.1047 40.5989H62.9187C62.971 41.7434 63.9375 42.5729 65.0958 42.5729C66.1844 42.5729 66.781 42.0269 67.0636 41.2499L69.014 41.8309C68.5743 43.3289 67.2032 44.5819 65.0784 44.5819C62.7059 44.5819 60.616 42.8704 60.616 39.9444ZM64.9039 37.2809C63.6898 37.2809 63.0234 38.1979 62.971 38.9924H66.8368C66.8019 38.1279 66.2402 37.2809 64.9039 37.2809ZM55.5673 42.4294C54.3741 42.4294 53.3518 41.5474 53.3518 39.9794C53.3518 38.4114 54.3531 37.5469 55.5499 37.5469C56.7466 37.5469 57.256 38.2889 57.4653 39.0099L59.5552 38.3064C59.1854 36.8434 57.8491 35.3804 55.4975 35.3804C52.9855 35.3804 51.0177 37.3019 51.0177 39.9829C51.0177 42.6639 53.0204 44.5854 55.5673 44.5854C57.87 44.5854 59.2238 43.1049 59.6076 41.6594L57.5525 40.9734C57.3606 41.6419 56.7605 42.4364 55.5673 42.4364V42.4294ZM47.4275 35.6429H49.7651V44.3159H47.4275V35.6429ZM81.2533 20.0644V21.0829C80.9532 20.5019 80.1647 19.9034 78.7935 19.9034C76.421 19.9034 74.7707 21.8424 74.7707 24.1349C74.7707 26.5674 76.4943 28.3489 78.7935 28.3489C80.0426 28.3489 80.8485 27.8029 81.2009 27.2394V27.8729C81.2009 29.5494 80.374 30.2879 78.8982 30.2879C77.7922 30.2879 77.0351 29.6019 76.8781 28.6499L74.7707 29.2134C75.015 30.8689 76.4908 32.3529 78.8633 32.3529C82.1151 32.3529 83.5037 30.1829 83.5037 27.8029V20.0644H81.2533ZM79.1982 26.3364C77.9841 26.3364 77.1258 25.4894 77.1258 24.1314C77.1258 22.7734 78.0399 21.9439 79.1982 21.9439C80.3566 21.9439 81.2358 22.7909 81.2358 24.1314C81.2358 25.4719 80.3915 26.3364 79.1982 26.3364ZM67.873 21.1389C68.3998 20.2394 69.4361 19.8334 70.3676 19.8334V19.8404C72.5098 19.8404 73.4937 21.3734 73.4937 23.2774V28.7409H71.1561V23.6799C71.1561 22.7104 70.6816 21.9509 69.5582 21.9509C68.5394 21.9509 67.9428 22.7454 67.9428 23.7499V28.7374H65.6051V20.0644H67.873V21.1389ZM53.7042 26.2489L51.7538 25.6679C51.4712 26.4449 50.8746 26.9909 49.786 26.9909C48.6277 26.9909 47.6612 26.1614 47.6089 25.0169H53.7949C53.7949 25.0084 53.7969 24.9809 53.8001 24.9393V24.9392L53.8001 24.9391C53.8098 24.8102 53.8298 24.5463 53.8298 24.2924C53.8298 21.5064 52.2318 19.7984 49.5592 19.7984C47.3437 19.7984 45.3062 21.5974 45.3062 24.3659C45.3062 27.2919 47.3961 29.0034 49.7686 29.0034C51.8934 29.0034 53.2645 27.7504 53.7042 26.2524V26.2489ZM49.5906 21.6989C50.9269 21.6989 51.4886 22.5459 51.5235 23.4104H47.6577C47.7101 22.6159 48.3765 21.6989 49.5906 21.6989ZM26.4377 27.7189C26.1133 28.3524 25.2585 28.9999 23.7722 28.9999V28.9929C21.2043 28.9929 19.4144 26.8754 19.4144 24.3939C19.4144 21.9124 21.2008 19.7949 23.7722 19.7949C25.2585 19.7949 26.1133 20.4459 26.4377 21.0759V20.0609H28.8731V28.7339H26.4377V27.7189ZM26.4273 24.4009C26.4273 22.9904 25.3806 21.8494 24.0897 21.8494C22.7987 21.8494 21.752 22.9904 21.752 24.4009C21.752 25.8114 22.7987 26.9524 24.0897 26.9524C25.3806 26.9524 26.4273 25.8114 26.4273 24.4009ZM32.6761 24.7684C32.6761 22.8994 33.7123 22.3184 34.909 22.3184C35.1184 22.3184 35.3486 22.3359 35.6103 22.3884V20.0259C35.4359 20.0084 35.2579 19.9909 35.066 19.9909C34.3264 19.9909 33.1331 20.2009 32.6063 21.3489V20.0609H30.3385V28.7339H32.6761V24.7684ZM24.5153 35.3769C26.0016 35.3769 26.8564 36.0279 27.1809 36.6579V36.6509V35.6359H29.6162V44.3089H27.1809V43.2939C26.8564 43.9274 26.0016 44.5749 24.5153 44.5749C21.9474 44.5749 20.1575 42.4574 20.1575 39.9759C20.1575 37.4944 21.9439 35.3769 24.5153 35.3769ZM22.4986 39.9794C22.4986 41.3899 23.5453 42.5309 24.8363 42.5309C26.1272 42.5309 27.1739 41.3899 27.1739 39.9794C27.1739 38.5689 26.1272 37.4279 24.8363 37.4279C23.5453 37.4279 22.4986 38.5689 22.4986 39.9794ZM35.4184 42.4294C34.2252 42.4294 33.2029 41.5474 33.2029 39.9794C33.2029 38.4114 34.2043 37.5469 35.401 37.5469C36.5977 37.5469 37.1071 38.2889 37.3164 39.0099L39.4063 38.3064C39.0365 36.8434 37.7002 35.3804 35.3486 35.3804C32.8366 35.3804 30.8688 37.3019 30.8688 39.9829C30.8688 42.6639 32.8715 44.5854 35.4184 44.5854C37.7211 44.5854 39.0749 43.1049 39.4587 41.6594L37.4037 40.9734C37.2118 41.6419 36.6117 42.4364 35.4184 42.4364V42.4294ZM41.7962 33.0389H44.1164L44.1199 33.0424V35.6429H45.9656V37.7219H44.1199V41.3444C44.1199 42.1039 44.4723 42.3489 45.1387 42.3489C45.4178 42.3489 45.8434 42.3139 45.9656 42.2789V44.2179C45.7527 44.3054 45.2224 44.4279 44.5386 44.4279C42.8499 44.4279 41.7962 43.4234 41.7962 41.7469V37.7184H40.2332V35.6394H41.7962V33.0389Z" fill="white"/>
</svg>
